# xmcd
#
# Track frame offsets:
# 150
# 15511
# 32758
# 53072
# 68682
# 90531
# 110778
# 125684
# 141365
# 159168
# 174103
# 191589
#
# Disc length: 2848 seconds
#
#
# Revision: 0
# Processed by: cddbd v1.5.2PL0 Copyright (c) Steve Scherf et al.
# Submitted via: FreeRIP 2.40 
#
DISCID=980b1e0c
DTITLE=Kalimba - Mi Otro Yo
DYEAR=2008
DGENRE=Latin
TTITLE0=Jamas
TTITLE1=Ella Baila Sola
TTITLE2=Se Te Olvido
TTITLE3=Mi Otro Yo
TTITLE4=Si No Estas
TTITLE5=001-646
TTITLE6=Sin Explicacion
TTITLE7=Nina Primavera
TTITLE8=Antes De Ti
TTITLE9=Alejate
TTITLE10=Cada Estacion
TTITLE11=Sin Mis Caricias
EXTD=
EXTT0=
EXTT1=
EXTT2=
EXTT3=
EXTT4=
EXTT5=
EXTT6=
EXTT7=
EXTT8=
EXTT9=
EXTT10=
EXTT11=
PLAYORDER=
